<svg preserveAspectRatio="none" width="100%" height="100%" overflow="visible" style="display: block;" viewBox="0 0 16.615 18" fill="none" xmlns="http://www.w3.org/2000/svg">
<path id="Vector" d="M7.32959 9.28558C7.59786 9.55817 7.95267 9.69231 8.30748 9.69231C8.66228 9.69231 9.01623 9.55709 9.28623 9.28666L16.2093 2.36358C16.7502 1.82272 16.7502 0.946514 16.2093 0.405649C15.6684 -0.135216 14.7922 -0.135216 14.2514 0.405649L8.30748 6.35192L2.36358 0.405865C1.82272 -0.135 0.946514 -0.135 0.405649 0.405865C-0.135216 0.946731 -0.135216 1.82293 0.405649 2.3638L7.32959 9.28558ZM14.2527 8.71442L8.30748 14.6596L2.36358 8.71442C1.82272 8.17356 0.946514 8.17356 0.405649 8.71442C-0.135216 9.25529 -0.135216 10.1315 0.405649 10.6724L7.32873 17.5954C7.59786 17.8659 7.95267 18 8.30748 18C8.66228 18 9.01623 17.8648 9.28623 17.5944L16.2093 10.6713C16.7502 10.1304 16.7502 9.25421 16.2093 8.71334C15.6684 8.17248 14.7935 8.17356 14.2527 8.71442Z" fill="var(--fill-0, #008292)"/>
</svg>
