<svg preserveAspectRatio="none" width="100%" height="100%" overflow="visible" style="display: block;" viewBox="0 0 39.9642 12.9435" fill="none" xmlns="http://www.w3.org/2000/svg">
<g id="Group 24">
<g id="Vector 7">
<path d="M3.37471 1.73701L0.12483 0.448265C-0.101249 0.358614 0.0306303 0.261491 0.12483 0.224136H5.67204C6.2996 0.224136 6.71797 0.933879 6.84872 1.28875L8.24953 8.85312L11.4434 0.336201H14.8053L9.7624 12.6633H6.28839L3.37471 1.73701Z" fill="var(--fill-0, #E2E2E2)"/>
<path d="M14.1329 12.6633L16.1501 0.336201H19.4L17.3268 12.6633H14.1329Z" fill="var(--fill-0, #E2E2E2)"/>
</g>
<path id="Vector 9" d="M19.512 12.3271L19.9043 9.46947C20.5953 9.76831 22.2352 10.3772 23.2662 10.422C24.5549 10.4781 27.1324 9.18931 23.5464 7.45231C19.9603 5.7153 20.5766 3.47401 21.3051 2.12923C22.0335 0.784453 24.611 0 25.9558 0C27.0316 0 28.4959 0.373549 29.0936 0.560324C29.0562 0.821808 28.9255 1.71459 28.7013 3.19385C27.9169 2.68955 24.2748 2.12923 24.1627 3.47401C24.0507 4.81879 25.9558 5.26704 27.1324 5.99547C28.3091 6.72389 29.3177 8.57296 28.197 10.5341C27.0764 12.4952 24.611 12.9435 23.2662 12.9435C22.1904 12.9435 20.3152 12.5326 19.512 12.3271Z" fill="var(--fill-0, #E2E2E2)"/>
<path id="Subtract" d="M37.386 0.28017L39.9642 12.7196H36.9944L36.5462 10.7587H32.3997L31.7269 12.7196H28.4212L33.2396 1.12099C33.4076 0.840894 33.9121 0.280434 34.5843 0.28017H37.386ZM33.3519 8.57314H36.098L35.0892 3.81044L33.3519 8.57314Z" fill="var(--fill-0, #E2E2E2)"/>
</g>
</svg>
