<svg preserveAspectRatio="none" width="100%" height="100%" overflow="visible" style="display: block;" viewBox="0 0 51.8049 51.8049" fill="none" xmlns="http://www.w3.org/2000/svg">
<path id="Vector" d="M51.8049 9.25087C51.8049 14.362 47.6651 18.5017 42.554 18.5017C39.9059 18.5017 37.5123 17.3916 35.8356 15.5068L18.3745 24.3414C18.4555 24.8502 18.5017 25.3705 18.5017 25.9024C18.5017 26.4344 18.4555 26.9547 18.3745 27.4635L35.8356 36.194C37.5123 34.4132 39.9059 33.3031 42.554 33.3031C47.6651 33.3031 51.8049 37.4429 51.8049 42.554C51.8049 47.6651 47.6651 51.8049 42.554 51.8049C37.4429 51.8049 33.3031 47.6651 33.3031 42.554C33.3031 41.4323 33.4997 40.2528 33.8697 39.3509L17.0216 30.9326C15.368 33.4766 12.5118 35.1533 9.25087 35.1533C4.14208 35.1533 0 31.0135 0 25.9024C0 20.7913 4.14208 16.6516 9.25087 16.6516C12.5118 16.6516 15.368 18.3283 17.0216 20.8723L33.8697 12.454C33.4997 11.448 33.3031 10.3725 33.3031 9.25087C33.3031 4.14208 37.4429 0 42.554 0C47.6651 0 51.8049 4.14208 51.8049 9.25087ZM9.1468 31.453C12.3152 31.453 14.6973 28.9668 14.6973 25.9024C14.6973 22.8381 12.3152 20.3519 9.1468 20.3519C6.18536 20.3519 3.59628 22.8381 3.59628 25.9024C3.59628 28.9668 6.18536 31.453 9.1468 31.453ZM42.554 3.70035C39.4897 3.70035 37.0035 6.18536 37.0035 9.25087C37.0035 12.3152 39.4897 14.8014 42.554 14.8014C45.6184 14.8014 48.1045 12.3152 48.1045 9.25087C48.1045 6.18536 45.6184 3.70035 42.554 3.70035ZM42.554 48.1045C45.6184 48.1045 48.1045 45.6184 48.1045 42.554C48.1045 39.4897 45.6184 37.0035 42.554 37.0035C39.4897 37.0035 37.0035 39.4897 37.0035 42.554C37.0035 45.6184 39.4897 48.1045 42.554 48.1045Z" fill="var(--fill-0, #008292)"/>
</svg>
