<svg preserveAspectRatio="xMidYMid meet" overflow="visible" style="display: block;" viewBox="0 0 13.7691 19.1667" fill="none" xmlns="http://www.w3.org/2000/svg">
<path id="Vector" d="M0 12.2469C0 9.38357 4.00164 3.26297 5.90272 0.519715C6.38385 -0.173238 7.38524 -0.173238 7.86638 0.519715C9.76745 3.26297 13.7691 9.38357 13.7691 12.2469C13.7691 16.0843 10.6867 19.1667 6.88455 19.1667C3.0824 19.1667 0 16.0843 0 12.2469ZM3.75521 12.2469C3.75521 11.9379 3.47357 11.621 3.12934 11.621C2.78355 11.621 2.50347 11.9379 2.50347 12.2469C2.50347 14.7034 4.46322 16.6632 6.88455 16.6632C7.22877 16.6632 7.51041 16.3816 7.51041 16.0373C7.51041 15.6931 7.22877 15.4115 6.88455 15.4115C5.15559 15.4115 3.75521 14.0111 3.75521 12.2469Z" fill="var(--fill-0, #008292)"/>
</svg>
