<svg preserveAspectRatio="xMidYMid meet" overflow="visible" style="display: block;" viewBox="0 0 17.2683 17.2683" fill="none" xmlns="http://www.w3.org/2000/svg">
<path id="Vector" d="M17.2683 3.08362C17.2683 4.78733 15.8884 6.16725 14.1847 6.16725C13.302 6.16725 12.5041 5.79721 11.9452 5.16892L6.12485 8.11378C6.15183 8.28338 6.16725 8.45684 6.16725 8.63415C6.16725 8.81145 6.15183 8.98491 6.12485 9.15451L11.9452 12.0647C12.5041 11.4711 13.302 11.101 14.1847 11.101C15.8884 11.101 17.2683 12.481 17.2683 14.1847C17.2683 15.8884 15.8884 17.2683 14.1847 17.2683C12.481 17.2683 11.101 15.8884 11.101 14.1847C11.101 13.8108 11.1666 13.4176 11.2899 13.117L5.67387 10.3109C5.12267 11.1589 4.1706 11.7178 3.08362 11.7178C1.38069 11.7178 0 10.3378 0 8.63415C0 6.93044 1.38069 5.55052 3.08362 5.55052C4.1706 5.55052 5.12267 6.10943 5.67387 6.95743L11.2899 4.15133C11.1666 3.81598 11.101 3.45751 11.101 3.08362C11.101 1.38069 12.481 0 14.1847 0C15.8884 0 17.2683 1.38069 17.2683 3.08362ZM3.04893 10.4843C4.10507 10.4843 4.89911 9.6556 4.89911 8.63415C4.89911 7.6127 4.10507 6.78397 3.04893 6.78397C2.06179 6.78397 1.19876 7.6127 1.19876 8.63415C1.19876 9.6556 2.06179 10.4843 3.04893 10.4843ZM14.1847 1.23345C13.1632 1.23345 12.3345 2.06179 12.3345 3.08362C12.3345 4.10507 13.1632 4.9338 14.1847 4.9338C15.2061 4.9338 16.0348 4.10507 16.0348 3.08362C16.0348 2.06179 15.2061 1.23345 14.1847 1.23345ZM14.1847 16.0348C15.2061 16.0348 16.0348 15.2061 16.0348 14.1847C16.0348 13.1632 15.2061 12.3345 14.1847 12.3345C13.1632 12.3345 12.3345 13.1632 12.3345 14.1847C12.3345 15.2061 13.1632 16.0348 14.1847 16.0348Z" fill="var(--fill-0, #008292)"/>
</svg>
