<svg preserveAspectRatio="xMidYMid meet" overflow="visible" style="display: block;" viewBox="0 0 15 11.6672" fill="none" xmlns="http://www.w3.org/2000/svg">
<path id="Vector" d="M7.28157 3.34389C7.35449 3.33608 7.42741 3.33348 7.50033 3.33348C8.8806 3.33348 10.0004 4.42988 10.0004 5.83359C10.0004 7.21385 8.8806 8.33369 7.50033 8.33369C6.09662 8.33369 5.00022 7.21385 5.00022 5.83359C5.00022 5.76067 5.00282 5.68775 5.01064 5.61483C5.25283 5.73202 5.5341 5.83359 5.83359 5.83359C6.7529 5.83359 7.50033 5.08616 7.50033 4.16685C7.50033 3.86735 7.39876 3.58609 7.28157 3.34389ZM12.5162 2.09905C13.735 3.22931 14.5501 4.56009 14.9355 5.51326C15.0215 5.719 15.0215 5.94817 14.9355 6.15391C14.5501 7.08364 13.735 8.41443 12.5162 9.56812C11.2896 10.7088 9.60459 11.6672 7.50033 11.6672C5.39607 11.6672 3.7111 10.7088 2.48501 9.56812C1.2662 8.41443 0.451585 7.08364 0.0640946 6.15391C-0.0213649 5.94817 -0.0213649 5.719 0.0640946 5.51326C0.451585 4.56009 1.2662 3.22931 2.48501 2.09905C3.7111 0.959416 5.39607 0 7.50033 0C9.60459 0 11.2896 0.959416 12.5162 2.09905ZM7.50033 2.08342C5.42993 2.08342 3.75017 3.76318 3.75017 5.83359C3.75017 7.90399 5.42993 9.58375 7.50033 9.58375C9.57073 9.58375 11.2505 7.90399 11.2505 5.83359C11.2505 3.76318 9.57073 2.08342 7.50033 2.08342Z" fill="var(--fill-0, white)"/>
</svg>
