<svg preserveAspectRatio="xMidYMid meet" overflow="visible" style="display: block;" viewBox="0 0 18 15.36" fill="none" xmlns="http://www.w3.org/2000/svg">
<path id="Vector" d="M1.8 4.8C1.8 5.331 1.39697 5.76 0.9 5.76C0.403031 5.76 0 5.331 0 4.8V2.88C0 1.2894 1.20881 0 2.7 0H15.3C16.7906 0 18 1.2894 18 2.88V4.8C18 5.331 17.5978 5.76 17.1 5.76C16.6022 5.76 16.2 5.331 16.2 4.8V2.88C16.2 2.3499 15.7978 1.92 15.3 1.92H2.7C2.20303 1.92 1.8 2.3499 1.8 2.88V4.8ZM3.6 2.88H14.4V13.44C14.4 14.499 13.5928 15.36 12.6 15.36H5.4C4.40719 15.36 3.6 14.499 3.6 13.44V2.88ZM7.2 13.44C7.2 12.381 6.39281 11.52 5.4 11.52V13.44H7.2ZM12.6 11.52C11.6072 11.52 10.8 12.381 10.8 13.44H12.6V11.52ZM11.7 8.16C11.7 6.834 10.4906 5.76 9 5.76C7.48406 5.76 6.3 6.834 6.3 8.16C6.3 9.486 7.48406 10.56 9 10.56C10.4906 10.56 11.7 9.486 11.7 8.16Z" fill="var(--fill-0, #757575)"/>
</svg>
