<svg preserveAspectRatio="xMidYMid meet" overflow="visible" style="display: block;" viewBox="0 0 18.5903 18.5903" fill="none" xmlns="http://www.w3.org/2000/svg">
<path id="Vector" d="M0.774597 7.74597C0.569161 7.74597 0.372139 7.66436 0.226874 7.51909C0.0816092 7.37383 0 7.17681 0 6.97137V0.774597C0 0.569161 0.0816092 0.372139 0.226874 0.226874C0.372139 0.0816092 0.569161 0 0.774597 0H6.97137C7.17681 0 7.37383 0.0816092 7.51909 0.226874C7.66436 0.372139 7.74597 0.569161 7.74597 0.774597V6.97137C7.74597 7.17681 7.66436 7.37383 7.51909 7.51909C7.37383 7.66436 7.17681 7.74597 6.97137 7.74597H0.774597ZM11.619 7.74597C11.4135 7.74597 11.2165 7.66436 11.0712 7.51909C10.926 7.37383 10.8444 7.17681 10.8444 6.97137V0.774597C10.8444 0.569161 10.926 0.372139 11.0712 0.226874C11.2165 0.0816092 11.4135 0 11.619 0H17.8157C18.0212 0 18.2182 0.0816092 18.3634 0.226874C18.5087 0.372139 18.5903 0.569161 18.5903 0.774597V6.97137C18.5903 7.17681 18.5087 7.37383 18.3634 7.51909C18.2182 7.66436 18.0212 7.74597 17.8157 7.74597H11.619ZM0.774597 18.5903C0.569161 18.5903 0.372139 18.5087 0.226874 18.3634C0.0816092 18.2182 0 18.0212 0 17.8157V11.619C0 11.4135 0.0816092 11.2165 0.226874 11.0712C0.372139 10.926 0.569161 10.8444 0.774597 10.8444H6.97137C7.17681 10.8444 7.37383 10.926 7.51909 11.0712C7.66436 11.2165 7.74597 11.4135 7.74597 11.619V17.8157C7.74597 18.0212 7.66436 18.2182 7.51909 18.3634C7.37383 18.5087 7.17681 18.5903 6.97137 18.5903H0.774597ZM11.619 18.5903C11.4135 18.5903 11.2165 18.5087 11.0712 18.3634C10.926 18.2182 10.8444 18.0212 10.8444 17.8157V11.619C10.8444 11.4135 10.926 11.2165 11.0712 11.0712C11.2165 10.926 11.4135 10.8444 11.619 10.8444H17.8157C18.0212 10.8444 18.2182 10.926 18.3634 11.0712C18.5087 11.2165 18.5903 11.4135 18.5903 11.619V17.8157C18.5903 18.0212 18.5087 18.2182 18.3634 18.3634C18.2182 18.5087 18.0212 18.5903 17.8157 18.5903H11.619Z" fill="var(--fill-0, #757575)"/>
</svg>
