<svg preserveAspectRatio="none" width="100%" height="100%" overflow="visible" style="display: block;" viewBox="0 0 10.5 12" fill="none" xmlns="http://www.w3.org/2000/svg">
<path id="Vector" d="M3.75 0.75V1.5H6.75V0.75C6.75 0.335859 7.08516 0 7.5 0C7.91484 0 8.25 0.335859 8.25 0.75V1.5H9.375C9.99609 1.5 10.5 2.00367 10.5 2.625V3.75H0V2.625C0 2.00367 0.503672 1.5 1.125 1.5H2.25V0.75C2.25 0.335859 2.58516 0 3 0C3.41484 0 3.75 0.335859 3.75 0.75ZM0 4.5H10.5V10.875C10.5 11.4961 9.99609 12 9.375 12H1.125C0.503672 12 0 11.4961 0 10.875V4.5ZM1.875 6C1.66781 6 1.5 6.16875 1.5 6.375V7.875C1.5 8.08125 1.66781 8.25 1.875 8.25H8.625C8.83125 8.25 9 8.08125 9 7.875V6.375C9 6.16875 8.83125 6 8.625 6H1.875Z" fill="var(--fill-0, #008292)"/>
</svg>
