<svg preserveAspectRatio="none" width="100%" height="100%" overflow="visible" style="display: block;" viewBox="0 0 18 14" fill="none" xmlns="http://www.w3.org/2000/svg">
<path id="Vector" d="M16 0C17.1031 0 18 0.895313 18 2V3H0V2C0 0.895313 0.895313 0 2 0H16ZM18 12C18 13.1031 17.1031 14 16 14H2C0.895313 14 0 13.1031 0 12V6H18V12ZM3.5 10C3.225 10 3 10.225 3 10.5C3 10.775 3.225 11 3.5 11H5.5C5.775 11 6 10.775 6 10.5C6 10.225 5.775 10 5.5 10H3.5ZM7.5 11H11.5C11.775 11 12 10.775 12 10.5C12 10.225 11.775 10 11.5 10H7.5C7.225 10 7 10.225 7 10.5C7 10.775 7.225 11 7.5 11Z" fill="var(--fill-0, #0067AE)"/>
</svg>
