<svg preserveAspectRatio="none" width="100%" height="100%" overflow="visible" style="display: block;" viewBox="0 0 13.1784 19.1667" fill="none" xmlns="http://www.w3.org/2000/svg">
<path id="Vector" d="M3.59786 17.0079C3.59786 17.2437 3.66585 17.4737 3.79569 17.6702L4.43739 18.632C4.63394 18.9269 5.08021 19.1667 5.43476 19.1667H7.7436C8.09695 19.1667 8.54329 18.927 8.73985 18.632L9.3793 17.6706C9.48929 17.5045 9.57952 17.2075 9.57952 17.0079L9.58431 15.5404H3.59412L3.59786 17.0079ZM6.56675 3.12709e-05C2.7495 0.0117309 0 3.10583 0 6.55506C0 8.21659 0.615493 9.73136 1.63083 10.8905C2.24969 11.5958 3.21599 13.0705 3.58588 14.3142C3.58705 14.3236 3.58939 14.3336 3.59056 14.3435H9.58824C9.58942 14.3336 9.59176 14.3242 9.59292 14.3142C9.96263 13.0705 10.9291 11.5958 11.548 10.8905C12.5644 9.76356 13.1784 8.25103 13.1784 6.55506C13.1784 2.9426 10.217 -0.0110843 6.56675 3.12709e-05ZM6.58922 3.59403C4.93704 3.59403 3.59412 4.93771 3.59412 6.55543C3.59412 6.91821 3.32456 7.18777 2.9951 7.18777C2.66564 7.18777 2.39608 6.91821 2.39608 6.58875C2.39608 4.27654 4.27737 2.42931 6.58922 2.42931C6.92032 2.42931 7.18824 2.69733 7.18824 3.02833C7.18824 3.35933 6.91868 3.59403 6.58922 3.59403Z" fill="var(--fill-0, #008292)"/>
</svg>
