<svg preserveAspectRatio="none" width="100%" height="100%" overflow="visible" style="display: block;" viewBox="0 0 18 17.0668" fill="none" xmlns="http://www.w3.org/2000/svg">
<path id="Vector" d="M17.7345 7.65671C18.0501 7.94338 18.0907 8.44672 17.822 8.78339C17.5532 9.12006 17.0814 9.16339 16.7657 8.87672L16.0001 8.18338V14.4001C16.0001 15.8734 14.8813 17.0668 13.5001 17.0668H4.50003C3.11939 17.0668 2.00001 15.8734 2.00001 14.4001V8.18338L1.23532 8.87672C0.919379 9.16339 0.446251 9.12006 0.178125 8.78339C-0.0898456 8.44672 -0.0510642 7.94338 0.264782 7.65671L8.51568 0.190001C8.7938 -0.0633337 9.20631 -0.0633337 9.48443 0.190001L17.7345 7.65671ZM4.50003 15.4668H6.00004V10.4001C6.00004 9.66339 6.55941 9.06672 7.25004 9.06672H10.7501C11.4407 9.06672 12.0001 9.66339 12.0001 10.4001V15.4668H13.5001C14.0532 15.4668 14.5001 14.9901 14.5001 14.4001V6.82671L9.00005 1.84901L3.50002 6.82671V14.4001C3.50002 14.9901 3.9469 15.4668 4.50003 15.4668ZM7.50004 15.4668H10.5001V10.6667H7.50004V15.4668Z" fill="var(--fill-0, #008292)"/>
</svg>
