<svg preserveAspectRatio="none" width="100%" height="100%" overflow="visible" style="display: block;" viewBox="0 0 12.3763 19.2" fill="none" xmlns="http://www.w3.org/2000/svg">
<path id="Vector" d="M3.37886 17.0375C3.37886 17.2737 3.44271 17.5041 3.56465 17.701L4.16729 18.6644C4.35187 18.9598 4.77098 19.2 5.10394 19.2H7.27225C7.60409 19.2 8.02327 18.9599 8.20785 18.6644L8.80838 17.7013C8.91168 17.5349 8.99642 17.2374 8.99642 17.0375L9.00092 15.5674H3.37535L3.37886 17.0375ZM6.16704 3.13253e-05C2.58214 0.0117513 0 3.11123 0 6.56646C0 8.23088 0.578028 9.74828 1.53156 10.9094C2.11276 11.616 3.02023 13.0933 3.36761 14.3391C3.36871 14.3485 3.37091 14.3585 3.372 14.3685H9.00461C9.00571 14.3585 9.00791 14.3491 9.00901 14.3391C9.35621 13.0933 10.2639 11.616 10.8451 10.9094C11.7996 9.78054 12.3763 8.26538 12.3763 6.56646C12.3763 2.94771 9.59512 -0.0111036 6.16704 3.13253e-05ZM6.18813 3.60028C4.63653 3.60028 3.37535 4.94629 3.37535 6.56683C3.37535 6.93025 3.12219 7.20027 2.81279 7.20027C2.50338 7.20027 2.25023 6.93025 2.25023 6.60021C2.25023 4.28398 4.01701 2.43354 6.18813 2.43354C6.49909 2.43354 6.75069 2.70203 6.75069 3.0336C6.75069 3.36517 6.49754 3.60028 6.18813 3.60028Z" fill="var(--fill-0, #757575)"/>
</svg>
