<svg preserveAspectRatio="none" width="100%" height="100%" overflow="visible" style="display: block;" viewBox="0 0 18 19.1983" fill="none" xmlns="http://www.w3.org/2000/svg">
<path id="Vector" d="M17.1548 12.8989H2.78554L5.39707 9.91301C5.71591 9.55042 5.69833 8.98047 5.35734 8.643C5.01636 8.30178 4.48203 8.32052 4.16565 8.68424L0.228496 13.1838C-0.0747005 13.5295 -0.0747005 14.0661 0.228496 14.4119L4.16565 18.9115C4.33087 19.1008 4.55585 19.1983 4.78083 19.1983C4.98736 19.1983 5.19388 19.1186 5.35664 18.9558C5.69721 18.6171 5.71591 18.0476 5.39728 17.6842L2.78554 14.6987H17.1548C17.6205 14.6987 17.9984 14.2956 17.9984 13.7988C17.9984 13.302 17.6223 12.8989 17.1548 12.8989ZM0.843676 6.29945H15.2143L12.6028 9.28531C12.2842 9.64858 12.3029 10.2182 12.6434 10.5568C12.9828 10.8978 13.518 10.8779 13.8354 10.5135L17.7726 6.01388C18.0758 5.66819 18.0758 5.13158 17.7726 4.78586L13.8354 0.28625C13.6676 0.0960666 13.4426 0 13.2176 0C13.0111 0 12.8045 0.0796805 12.6418 0.242566C12.3012 0.581199 12.2825 1.15074 12.6011 1.51408L15.2143 4.49961H0.843676C0.377897 4.49961 0 4.90457 0 5.39953C0 5.89449 0.377897 6.29945 0.843676 6.29945Z" fill="var(--fill-0, #757575)"/>
</svg>
