<svg preserveAspectRatio="none" width="100%" height="100%" overflow="visible" style="display: block;" viewBox="0 0 9 9" fill="none" xmlns="http://www.w3.org/2000/svg">
<path id="Vector" d="M9 4.5C9 4.88272 8.68998 5.19252 8.30769 5.19252H5.19231V8.30791C5.19231 8.69063 4.88228 9 4.5 9C4.11772 9 3.80769 8.69063 3.80769 8.30791V5.19252H0.692308C0.310024 5.19252 0 4.88272 0 4.5C0 4.11728 0.310024 3.80791 0.692308 3.80791H3.80769V0.692524C3.80769 0.309808 4.11772 0 4.5 0C4.88228 0 5.19231 0.309808 5.19231 0.692524V3.80791H8.30769C8.69063 3.80769 9 4.11707 9 4.5Z" fill="var(--fill-0, white)"/>
</svg>
