<svg preserveAspectRatio="none" width="100%" height="100%" overflow="visible" style="display: block;" viewBox="0 0 19.1667 15.3333" fill="none" xmlns="http://www.w3.org/2000/svg">
<path id="Vector" d="M9.58333 3.83333C9.84687 3.83333 10.0625 4.04895 10.0625 4.31249V4.79166H10.5417C10.8052 4.79166 11.0208 5.00728 11.0208 5.27083C11.0208 5.53437 10.8052 5.74999 10.5417 5.74999H9.58333C9.31979 5.74999 9.10417 5.53437 9.10417 5.27083V4.31249C9.10417 4.04895 9.31979 3.83333 9.58333 3.83333ZM14.2792 2.93669L18.0406 3.74648C18.6995 3.92017 19.1667 4.50116 19.1667 5.17499V13.8958C19.1667 14.6894 18.5228 15.3333 17.7292 15.3333H1.4375C0.643581 15.3333 0 14.6894 0 13.8958V5.17499C0 4.50116 0.468086 3.92017 1.12574 3.74648L4.8875 2.93669L9.05026 0.160933C9.34674 -0.0536442 9.79297 -0.0536442 10.1164 0.160933L14.2792 2.93669ZM7.66667 15.3333H11.5V12.4583C11.5 11.4012 10.6405 10.5417 9.58333 10.5417C8.52617 10.5417 7.66667 11.4012 7.66667 12.4583V15.3333ZM2.875 5.74999C2.61026 5.74999 2.39583 5.96562 2.39583 6.22916V8.14583C2.39583 8.40937 2.61026 8.62499 2.875 8.62499H3.83333C4.09687 8.62499 4.3125 8.40937 4.3125 8.14583V6.22916C4.3125 5.96562 4.09687 5.74999 3.83333 5.74999H2.875ZM14.8542 8.14583C14.8542 8.40937 15.0698 8.62499 15.3333 8.62499H16.2917C16.5552 8.62499 16.7708 8.40937 16.7708 8.14583V6.22916C16.7708 5.96562 16.5552 5.74999 16.2917 5.74999H15.3333C15.0698 5.74999 14.8542 5.96562 14.8542 6.22916V8.14583ZM2.875 9.58333C2.61026 9.58333 2.39583 9.79895 2.39583 10.0625V11.9792C2.39583 12.2427 2.61026 12.4583 2.875 12.4583H3.83333C4.09687 12.4583 4.3125 12.2427 4.3125 11.9792V10.0625C4.3125 9.79895 4.09687 9.58333 3.83333 9.58333H2.875ZM14.8542 11.9792C14.8542 12.2427 15.0698 12.4583 15.3333 12.4583H16.2917C16.5552 12.4583 16.7708 12.2427 16.7708 11.9792V10.0625C16.7708 9.79895 16.5552 9.58333 16.2917 9.58333H15.3333C15.0698 9.58333 14.8542 9.79895 14.8542 10.0625V11.9792ZM9.58333 2.63541C8.12786 2.63541 6.94792 3.81536 6.94792 5.27083C6.94792 6.72629 8.12786 7.90624 9.58333 7.90624C11.0388 7.90624 12.2187 6.72629 12.2187 5.27083C12.2187 3.81536 11.0388 2.63541 9.58333 2.63541Z" fill="var(--fill-0, #008292)"/>
</svg>
