<svg preserveAspectRatio="xMidYMid meet" width="100%" height="100%" overflow="visible" style="display: block;" viewBox="0 0 15 12.8832" fill="none" xmlns="http://www.w3.org/2000/svg">
<path id="Vector" d="M15 6.44158C15 7.03542 14.5504 7.51518 13.9566 7.51518H3.66684L7.203 11.0513C7.62237 11.4707 7.62237 12.1501 7.203 12.5695C6.99163 12.7792 6.71653 12.8832 6.44142 12.8832C6.16631 12.8832 5.89187 12.7783 5.68252 12.5686L0.31453 7.20065C-0.104843 6.78128 -0.104843 6.10189 0.31453 5.68252L5.68252 0.31453C6.10189 -0.104843 6.78128 -0.104843 7.20065 0.31453C7.62002 0.733904 7.62002 1.41329 7.20065 1.83266L3.66684 5.36799H13.9566C14.5504 5.36799 15 5.84775 15 6.44158Z" fill="var(--fill-0, #1A1A1A)"/>
</svg>
