<svg preserveAspectRatio="xMidYMid meet" width="100%" height="100%" overflow="visible" style="display: block;" viewBox="0 0 36 30.8606" fill="none" xmlns="http://www.w3.org/2000/svg">
<path id="Vector" d="M35.2461 17.2474L22.3884 30.1052C21.8902 30.6114 21.2312 30.8606 20.5722 30.8606C19.9133 30.8606 19.2559 30.6094 18.7545 30.1072C17.75 29.1027 17.75 27.4754 18.7545 26.4708L27.2261 18.0028H2.57142C1.15144 18.0028 0 16.8537 0 15.4313C0 14.0089 1.15144 12.8597 2.57142 12.8597H27.2261L18.7561 4.38971C17.7516 3.3852 17.7516 1.75789 18.7561 0.753382C19.7606 -0.251127 21.3879 -0.251127 22.3924 0.753382L35.2501 13.6111C36.2506 14.6196 36.2506 16.2429 35.2461 17.2474Z" fill="var(--fill-0, black)"/>
</svg>
