<svg preserveAspectRatio="xMidYMid meet" width="100%" height="100%" overflow="visible" style="display: block;" viewBox="0 0 10.5006 12" fill="none" xmlns="http://www.w3.org/2000/svg">
<path id="Vector" d="M5.99999 0.75V1.2C7.71093 1.54758 8.99999 3.06094 8.99999 4.875V5.31563C8.99999 6.41953 9.40546 7.48125 10.1367 8.30625L10.3102 8.50078C10.507 8.72344 10.5562 9.0375 10.4344 9.30703C10.3125 9.57656 10.0453 9.75 9.74999 9.75H0.749994C0.454682 9.75 0.186815 9.57656 0.0658303 9.30703C-0.055154 9.0375 -0.00676265 8.72344 0.189463 8.50078L0.363276 8.30625C1.09546 7.48125 1.49999 6.41953 1.49999 5.31563V4.875C1.49999 3.06094 2.76796 1.54758 4.49999 1.2V0.75C4.49999 0.335859 4.83515 0 5.24999 0C5.66484 0 5.99999 0.335859 5.99999 0.75ZM5.24999 12C4.85156 12 4.46953 11.843 4.18828 11.5617C3.90703 11.2805 3.74999 10.8773 3.74999 10.5H6.74999C6.74999 10.8773 6.59296 11.2805 6.31171 11.5617C6.03046 11.843 5.62734 12 5.24999 12Z" fill="var(--fill-0, #008292)"/>
</svg>
