<svg preserveAspectRatio="xMidYMid meet" width="100%" height="100%" overflow="visible" style="display: block;" viewBox="0 0 9 12" fill="none" xmlns="http://www.w3.org/2000/svg">
<path id="Vector" d="M9 3H6V0L9 3ZM6 3.75H9V10.875C9 11.4963 8.49633 12 7.875 12H1.125C0.503672 12 0 11.4961 0 10.875V1.125C0 0.503672 0.503672 0 1.125 0H5.25L5.25009 3C5.25 3.41484 5.58516 3.75 6 3.75ZM5.76094 6.19687L3.90633 8.36109L3.21047 7.66523C2.99074 7.44551 2.63484 7.44551 2.415 7.66523C2.19516 7.88496 2.19527 8.24086 2.415 8.4607L3.54 9.5857C3.64547 9.69117 3.78891 9.75049 3.93773 9.75049C3.94506 9.75049 3.95238 9.75049 3.95897 9.74976C4.11572 9.7439 4.26296 9.67286 4.36468 9.5542L6.61468 6.9292C6.81682 6.69341 6.78973 6.3381 6.55388 6.13607C6.31875 5.93437 5.9625 5.96016 5.76094 6.19687Z" fill="var(--fill-0, #008292)"/>
</svg>
