<svg preserveAspectRatio="xMidYMid meet" width="100%" height="100%" overflow="visible" style="display: block;" viewBox="0 0 15 13.1254" fill="none" xmlns="http://www.w3.org/2000/svg">
<path id="Vector" d="M4.68765 11.2504H2.81259C2.2949 11.2504 1.87506 10.8305 1.87506 10.3128V2.81259C1.87506 2.2949 2.2949 1.87506 2.81259 1.87506H4.68765C5.20534 1.87506 5.62518 1.45522 5.62518 0.93753C5.62518 0.419838 5.20622 0 4.68765 0H2.81259C1.25922 0 0 1.25922 0 2.81259V10.3128C0 11.8662 1.25922 13.1254 2.81259 13.1254H4.68765C5.20534 13.1254 5.62518 12.7056 5.62518 12.1879C5.62518 11.6702 5.20622 11.2504 4.68765 11.2504ZM14.7251 5.90058L10.975 2.15046C10.6084 1.78394 10.0152 1.78453 9.64923 2.15046C9.28301 2.51668 9.28301 3.10996 9.64923 3.47618L11.8012 5.62518H5.62518C5.10661 5.62518 4.68765 6.04414 4.68765 6.56271C4.68765 7.08128 5.1069 7.50024 5.62518 7.50024H11.8012L9.65128 9.65011C9.28506 10.0163 9.28506 10.6096 9.65128 10.9758C10.0175 11.3421 10.6108 11.3421 10.977 10.9758L14.7271 7.22572C15.0913 6.85862 15.0913 6.2668 14.7251 5.90058Z" fill="var(--fill-0, #008292)"/>
</svg>
