<svg preserveAspectRatio="xMidYMid meet" width="100%" height="100%" overflow="visible" style="display: block;" viewBox="0 0 12 11.999" fill="none" xmlns="http://www.w3.org/2000/svg">
<path id="Vector" d="M9.89422 5.15543L4.42272 10.6246L3.62733 9.8292L3.70945 9.74708H2.62782C2.42135 9.74708 2.25242 9.57815 2.25242 9.37168V8.29004L2.17053 8.37216C2.05955 8.48479 1.97814 8.62087 1.93379 8.77103L1.39462 10.6058L3.22846 10.0662C3.35751 10.0216 3.51471 9.93947 3.62733 9.8292L4.42272 10.6246C4.1787 10.8686 3.87603 11.0493 3.54521 11.1455L0.721942 11.976C0.524386 12.0347 0.310641 11.9807 0.164938 11.8141C0.0192294 11.6898 -0.0352463 11.4763 0.0228943 11.2768L0.853334 8.45428C0.950938 8.12346 1.12996 7.82079 1.37421 7.57678L6.84407 2.10621L9.89422 5.15543ZM11.5601 1.36503C12.1466 1.95136 12.1466 2.90301 11.5601 3.48957L10.4245 4.62517L7.37433 1.57549L8.50992 0.439891C9.09649 -0.14663 10.0491 -0.14663 10.6356 0.439891L11.5601 1.36503Z" fill="var(--fill-0, #008292)"/>
</svg>
