<svg preserveAspectRatio="xMidYMid meet" width="100%" height="100%" overflow="visible" style="display: block;" viewBox="0 0 11.9994 12" fill="none" xmlns="http://www.w3.org/2000/svg">
<path id="Vector" d="M0.443368 8.22976L2.98624 7.13948C3.28576 7.00986 3.63707 7.09728 3.8405 7.34995L4.87382 8.6113C6.49681 7.81446 7.81511 6.49474 8.61196 4.87317L7.35084 3.84102C7.09889 3.63522 7.01311 3.28581 7.14052 2.98629L8.23055 0.443416C8.37337 0.117413 8.72506 -0.0609399 9.06935 0.0189789L11.4318 0.56388C11.7657 0.640049 11.9994 0.934178 11.9994 1.27776C11.9994 7.19081 7.1902 12 1.27715 12C0.933334 12 0.640142 11.7664 0.563504 11.4324L0.0186037 9.06996C-0.0603074 8.72661 0.117553 8.37037 0.443368 8.22976Z" fill="var(--fill-0, #008292)"/>
</svg>
