<svg preserveAspectRatio="xMidYMid meet" width="100%" height="100%" overflow="visible" style="display: block;" viewBox="0 0 9 12" fill="none" xmlns="http://www.w3.org/2000/svg">
<path id="Vector" d="M0 1.5C0 0.671484 0.671484 0 1.5 0H7.5C8.32734 0 9 0.671484 9 1.5V8.25H6C5.58516 8.25 5.25 8.58516 5.25 9V12H1.5C0.671484 12 0 11.3273 0 10.5V1.5ZM4.01484 1.23492C3.86953 1.08844 3.63047 1.08844 3.48516 1.23492L1.23492 3.48516C1.08844 3.63047 1.08844 3.86953 1.23492 4.01484C1.38117 4.1625 1.61859 4.1625 1.76508 4.01484L4.01484 1.76508C4.1625 1.61883 4.1625 1.38141 4.01484 1.23492ZM6.26484 2.51484C6.4125 2.36953 6.4125 2.13117 6.26484 1.98492C6.11953 1.83844 5.88047 1.83844 5.73516 1.98492L1.98492 5.73516C1.83844 5.88047 1.83844 6.11953 1.98492 6.26484C2.13117 6.4125 2.36953 6.4125 2.51484 6.26484L6.26484 2.51484ZM9 9L6 12V9H9Z" fill="var(--fill-0, #008292)"/>
</svg>
