<svg preserveAspectRatio="xMidYMid meet" width="100%" height="100%" overflow="visible" style="display: block;" viewBox="0 0 11.2502 12" fill="none" xmlns="http://www.w3.org/2000/svg">
<path id="Vector" d="M10.5587 1.96182L6.05868 0.0867903C5.94442 0.039188 5.75023 0 5.62648 0C5.50198 0 5.3089 0.039188 5.19382 0.0867903L0.693994 1.96182C0.274223 2.13502 0 2.54518 0 2.97878C0 9.02808 4.43444 12 5.62273 12C6.82275 12 11.2502 8.99527 11.2502 2.97878C11.2502 2.54518 10.9759 2.13502 10.5587 1.96182ZM7.87511 4.6874C7.87511 4.81703 7.83055 4.94733 7.73961 5.0535L5.48958 7.67853C5.3321 7.86322 5.12351 7.85385 5.06257 7.85385C4.91388 7.85385 4.7703 7.79453 4.66483 7.68906L3.53981 6.56404C3.42895 6.47571 3.37505 6.33039 3.37505 6.16633C3.37505 5.86656 3.61646 5.60382 3.93755 5.60382C4.08149 5.60382 4.22537 5.65876 4.33529 5.76861L5.03116 6.46448L6.8858 4.30023C6.99734 4.17057 7.15486 4.10424 7.3133 4.10424C7.74386 4.12489 7.87511 4.51396 7.87511 4.6874Z" fill="var(--fill-0, #008292)"/>
</svg>
