<svg preserveAspectRatio="xMidYMid meet" width="100%" height="100%" overflow="visible" style="display: block;" viewBox="0 0 11.9998 12" fill="none" xmlns="http://www.w3.org/2000/svg">
<path id="Vector" d="M5.70478 0.0606357C5.89228 -0.0202119 6.1079 -0.0202119 6.2954 0.0606357L11.5454 2.31071C11.8735 2.45156 12.0563 2.80313 11.9837 3.15C11.9134 3.49922 11.6063 3.72891 11.229 3.75V3.9375C11.229 4.24922 10.9993 4.5 10.6665 4.5H1.2915C1.00181 4.5 0.728998 4.24922 0.728998 3.9375V3.75C0.394076 3.72891 0.086998 3.49922 0.0153918 3.15C-0.0562051 2.80313 0.127334 2.45156 0.454545 2.31071L5.70478 0.0606357ZM6.00009 3C6.41493 3 6.75009 2.66485 6.75009 2.25C6.75009 1.83586 6.41493 1.5 6.00009 1.5C5.58525 1.5 5.25009 1.83586 5.25009 2.25C5.25009 2.66485 5.58525 3 6.00009 3ZM2.979 9.75H3.9165V5.25H5.4165V9.75H6.56259V5.25H8.06259V9.75H9.00009V5.25H10.5001V9.85078C10.5142 9.85781 10.5282 9.84609 10.5423 9.87656L11.6673 10.6266C11.9415 10.8094 12.0634 11.1516 11.9673 11.468C11.8712 11.7844 11.5806 12 11.2501 12H0.728998C0.419623 12 0.128014 11.7844 0.032248 11.468C-0.063541 11.1516 0.0590371 10.8094 0.334076 10.6266L1.45908 9.87656C1.47244 9.84609 1.48626 9.85781 1.479 9.85078V5.25H2.979V9.75Z" fill="var(--fill-0, #008292)"/>
</svg>
