<svg preserveAspectRatio="xMidYMid meet" width="100%" height="100%" overflow="visible" style="display: block;" viewBox="0 0 36 30.9196" fill="none" xmlns="http://www.w3.org/2000/svg">
<path id="Vector" d="M36 15.4598C36 16.885 34.921 18.0364 33.4958 18.0364H8.80041L17.2872 26.5232C18.2937 27.5297 18.2937 29.1602 17.2872 30.1667C16.7799 30.67 16.1197 30.9196 15.4594 30.9196C14.7991 30.9196 14.1405 30.668 13.638 30.1647L0.754873 17.2816C-0.251624 16.2751 -0.251624 14.6445 0.754873 13.638L13.638 0.754873C14.6445 -0.251624 16.2751 -0.251624 17.2816 0.754873C18.2881 1.76137 18.2881 3.3919 17.2816 4.39839L8.80041 12.8832H33.4958C34.921 12.8832 36 14.0346 36 15.4598Z" fill="var(--fill-0, black)"/>
</svg>
