<svg preserveAspectRatio="xMidYMid meet" width="100%" height="100%" overflow="visible" style="display: block;" viewBox="0 0 71.5 74.3713" fill="none" xmlns="http://www.w3.org/2000/svg">
<path id="Vector" d="M0 0V74.3713H71.5V0H0ZM23.9276 58.0063H15.9517V16.452H23.9276V58.0063ZM24.3554 58.0063C24.3554 58.0063 33.6146 53.8516 33.6146 45.738C33.6907 43.5033 33.114 41.2948 31.9551 39.3826C30.7961 37.4704 29.1052 35.9372 27.0889 34.9705C27.0889 34.9705 32.6068 31.4394 32.6068 25.1457C32.6068 18.8521 24.5439 16.4448 24.5439 16.4448H32.3603C34.492 16.4448 40.5972 18.4532 40.5972 25.2182C40.5978 27.1705 40.085 29.0885 39.1101 30.7799C38.1352 32.4713 36.7326 33.8765 35.043 34.8545C35.043 34.8545 41.6558 37.0298 41.6558 46.26C41.6558 55.4903 31.8382 57.9846 31.8382 57.9846L24.3554 58.0063ZM45.8612 58.0063H38.4654C38.4654 58.0063 47.7247 53.8516 47.7247 45.738C47.8007 43.5033 47.224 41.2948 46.0651 39.3826C44.9062 37.4704 43.2152 35.9372 41.199 34.9705C41.199 34.9705 46.7241 31.4394 46.7241 25.1457C46.7241 18.8521 38.6612 16.4448 38.6612 16.4448H46.4775C48.6093 16.4448 54.7144 18.4532 54.7144 25.2182C54.7065 27.1763 54.1821 29.0977 53.1942 30.7883C52.2063 32.479 50.7898 33.8791 49.0878 34.8473C49.0878 34.8473 55.7005 37.0225 55.7005 46.2528C55.7005 55.483 45.9192 57.9846 45.9192 57.9846L45.8612 58.0063Z" fill="var(--fill-0, #008292)"/>
</svg>
